<?xml version="1.0" encoding="UTF-8" standalone="no"?>
<svg
   xmlns:dc="http://purl.org/dc/elements/1.1/"
   xmlns:cc="http://creativecommons.org/ns#"
   xmlns:rdf="http://www.w3.org/1999/02/22-rdf-syntax-ns#"
   xmlns:svg="http://www.w3.org/2000/svg"
   xmlns="http://www.w3.org/2000/svg"
   xmlns:sodipodi="http://sodipodi.sourceforge.net/DTD/sodipodi-0.dtd"
   xmlns:inkscape="http://www.inkscape.org/namespaces/inkscape"
   sodipodi:docname="power-usb.svg"
   inkscape:version="1.0beta2 (2b71d25, 2019-12-03)"
   id="svg8"
   version="1.1"
   viewBox="0 0 574.52386 224.51785"
   height="224.51785mm"
   width="574.52386mm">
  <defs
     id="defs2" />
  <sodipodi:namedview
     fit-margin-bottom="0"
     fit-margin-right="0"
     fit-margin-left="0"
     fit-margin-top="0"
     inkscape:window-maximized="0"
     inkscape:window-y="23"
     inkscape:window-x="0"
     inkscape:window-height="880"
     inkscape:window-width="1600"
     showgrid="false"
     inkscape:document-rotation="0"
     inkscape:current-layer="layer1"
     inkscape:document-units="mm"
     inkscape:cy="905.71432"
     inkscape:cx="1077.1429"
     inkscape:zoom="0.35"
     inkscape:pageshadow="2"
     inkscape:pageopacity="0.0"
     borderopacity="1.0"
     bordercolor="#666666"
     pagecolor="#ffffff"
     id="base" />
  <metadata
     id="metadata5">
    <rdf:RDF>
      <cc:Work
         rdf:about="">
        <dc:format>image/svg+xml</dc:format>
        <dc:type
           rdf:resource="http://purl.org/dc/dcmitype/StillImage" />
        <dc:title></dc:title>
      </cc:Work>
    </rdf:RDF>
  </metadata>
  <g
     transform="translate(237.36905,226.02977)"
     id="layer1"
     inkscape:groupmode="layer"
     inkscape:label="Layer 1">
    <path
       inkscape:connector-curvature="0"
       id="path1443"
       d="m -144.48068,-52.624643 c -11.96464,-1.250545 -22.55979,-6.458961 -30.89207,-15.186084 -11.47689,-12.020749 -16.29548,-28.212533 -13.27969,-44.623353 1.78368,-9.70615 6.61828,-19.50445 14.0793,-28.53458 1.78421,-2.15945 8.8603,-9.33119 10.00433,-10.13957 l 0.6679,-0.47194 v 6.27211 6.27211 l -1.69542,2.11646 c -6.15666,7.68557 -9.68602,16.06027 -10.62248,25.20571 -1.07932,10.54065 2.33999,21.948114 9.03495,30.142227 1.91684,2.346075 5.59342,5.723314 7.93554,7.289461 3.53565,2.36425 7.36206,3.997606 11.41052,4.870755 2.43898,0.526028 9.00153,0.524319 11.47458,-0.0031 5.17655,-1.103747 10.62363,-3.733136 15.10462,-7.291239 0.7912,-0.628244 2.52721,-2.209793 3.85782,-3.514561 l 2.41928,-2.372297 -4.21631,-4.219901 -4.21632,-4.219902 1.84751,-2.773367 c 1.01612,-1.525346 1.91784,-2.796806 2.00381,-2.825466 0.086,-0.0287 2.23519,2.0283 4.77602,4.57101 l 4.61969,4.623124 1.80245,-1.794097 1.80245,-1.794097 -5.03615,-5.03917 -5.03615,-5.03917 1.77228,-2.67017 c 0.97475,-1.4686 1.85522,-2.76002 1.95661,-2.86983 0.11441,-0.12393 2.2686,1.88355 5.68001,5.2932 l 5.49568,5.49286 1.843894,-1.85247 1.84389,-1.85247 -5.903684,-5.9068 -5.90369,-5.90679 1.8742,-2.81932 1.87419,-2.81933 6.360184,6.21017 c 3.4981,3.41558 6.4239,6.23379 6.50177,6.26267 0.0779,0.0289 0.92482,-0.73482 1.88211,-1.69711 l 1.74054,-1.74962 -6.7588,-6.76113 -6.758794,-6.76112 1.8011,-2.79318 c 0.99061,-1.53625 1.903314,-2.79318 2.028234,-2.79318 0.12492,0 3.44433,3.21237 7.37647,7.1386 l 7.14935,7.13861 1.79567,-1.79569 1.79568,-1.79568 -7.58301,-7.58509 -7.58302,-7.58509 1.5669,-2.43307 c 0.8618,-1.33818 3.88024,-5.89895 6.70764,-10.13504 l 5.14073,-7.70197 2.71812,-2.11808 2.71812,-2.11808 8.89603,8.89428 8.89605,8.89427 -6.93445,6.9367 -6.93446,6.9367 5.95709,5.95974 c 3.2764,3.27787 6.04966,5.95976 6.16279,5.95976 0.11314,0 3.28115,-3.07441 7.04002,-6.83204 l 6.83431,-6.83202 8.939337,8.93756 c 4.916636,4.91568 8.939338,8.99065 8.939338,9.05549 0,0.0649 -0.947892,1.33082 -2.106421,2.81326 l -2.106428,2.69537 -9.917102,6.58948 c -5.454404,3.624211 -9.985334,6.589473 -10.068724,6.589473 -0.0834,0 -3.5499,-3.39734 -7.70334,-7.549643 l -7.55172,-7.54965 -1.85278,1.8442 -1.85278,1.8442 7.19429,7.196429 c 3.95686,3.958032 7.19429,7.256667 7.19429,7.330292 0,0.168042 -5.40852,3.665841 -5.66836,3.665841 -0.105,0 -3.19471,-3.004867 -6.86602,-6.677481 l -6.6751,-6.677481 -1.80234,1.793988 -1.80233,1.793988 6.40007,6.402494 6.40008,6.402494 -2.83001,1.894082 -2.83,1.894083 -5.93035,-5.927713 -5.93036,-5.927705 -1.85249,1.8439 -1.85248,1.843899 5.56626,5.569027 5.56627,5.569027 -2.84186,1.864188 -2.84187,1.864187 -5.08629,-5.06557 -5.08629,-5.065562 -1.79656,1.796558 -1.79655,1.796567 4.70127,4.704609 4.70127,4.704616 -2.7965,1.871651 c -1.53807,1.029416 -2.86746,1.871659 -2.95421,1.871659 -0.0868,0 -2.0142,-1.85482 -4.28323,-4.121825 l -4.125504,-4.121826 -2.14424,2.121279 c -8.80242,8.708156 -18.22054,13.796748 -28.8599,15.592957 -2.38336,0.402376 -8.69147,0.681721 -10.68627,0.473228 z m 105.836864,-68.100057 -7.18876,-7.19095 1.739432,-1.74852 c 0.956692,-0.96168 1.819021,-1.74851 1.916296,-1.74851 0.09727,0 1.486472,0.78561 3.087113,1.74579 l 2.910256,1.7458 10.22266,-10.22089 10.22266,-10.22088 2.468322,2.46188 2.468314,2.46189 6.8331501,-6.83087 c 3.758223,-3.75697 6.887162,-6.83086 6.953183,-6.83086 0.06602,0 1.150435,1.04037 2.409796,2.31193 l 2.289763,2.31194 -19.4674541,19.47161 c -10.707104,10.70937 -19.514377,19.47161 -19.571721,19.47161 -0.05732,0 -3.339195,-3.23593 -7.29301,-7.19097 z m -24.50982,-1.90419 -3.54216,-3.54651 8.32236,-8.32045 c 4.5773,-4.57625 8.32236,-8.40489 8.32236,-8.5081 0,-0.10319 -0.7922,-1.48426 -1.76043,-3.06903 l -1.76043,-2.88141 9.209133,-9.21084 c 5.065026,-5.06596 9.302427,-9.21085 9.416448,-9.21085 0.114021,0 3.951935,3.74549 8.528705,8.3233 l 8.321385,8.32329 -9.280858,9.28085 -9.28085,9.28086 -3.038731,-1.78943 -3.038739,-1.78942 -8.333983,8.33212 c -4.5837,4.58268 -8.3808,8.33213 -8.43802,8.33213 -0.0572,0 -1.698,-1.59593 -3.64619,-3.54651 z m -92.450414,-4.88833 c -1.10557,-0.54726 -2.29491,-1.7342 -2.77079,-2.76519 -0.36279,-0.78599 -0.37962,-2.02 -0.38394,-28.16522 l -0.005,-27.34321 0.52974,-1.06304 c 0.58844,-1.18085 1.41903,-1.97481 2.6556,-2.5385 0.78522,-0.35795 2.39063,-0.37473 35.86064,-0.37473 39.597754,0 35.839944,-0.16698 37.524054,1.66743 1.59356,1.73578 1.53838,1.16078 1.47527,15.37527 l -0.0561,12.63337 -2.89878,2.26575 c -2.58302,2.01895 -3.02801,2.46164 -4.08517,4.06393 -0.65252,0.98899 -1.22073,1.79817 -1.2627,1.79817 -0.0419,0 -0.0764,-1.28064 -0.0764,-2.84587 v -2.84585 l 0.82202,-0.37068 0.82202,-0.37068 v -4.75646 -4.75644 l -0.7793,-0.76098 -0.77932,-0.76097 h -6.3905 -6.390494 l -0.11455,-0.6679 c -0.063,-0.36734 -0.17751,-1.89092 -0.25446,-3.38574 l -0.13992,-2.71786 -3.21061,-0.0565 -3.21061,-0.0565 -0.41101,-3.34411 -0.41101,-3.34412 -10.15139,6.6e-4 c -5.58327,3.7e-4 -10.17819,0.0275 -10.21094,0.0602 -0.0328,0.0328 -0.20504,1.21364 -0.38287,2.62419 -0.17782,1.41055 -0.37673,2.91142 -0.44201,3.33527 l -0.1187,0.77065 h -3.14588 -3.14587 l -0.1212,1.59266 c -0.0666,0.87597 -0.17969,2.40184 -0.25119,3.39083 l -0.13002,1.79818 h -6.4074 -6.40739 l -0.76098,0.7793 -0.76098,0.77931 v 4.73812 4.73812 l 0.82203,0.37068 0.82202,0.37067 v 4.69123 4.69123 l -0.82202,0.41937 -0.82203,0.41936 v 6.01652 6.01652 l 0.77932,0.76097 0.77931,0.76098 h 6.00236 6.00235 v -8.42568 -8.42572 h 1.64405 1.64404 v 8.42572 8.42571 h 1.7468 1.74678 v -8.42571 -8.42572 h 1.64405 1.64404 v 8.42572 8.42571 h 1.74679 1.74679 v -8.42571 -8.42572 l 1.69542,-7e-5 1.69542,-7e-5 -0.0558,8.42579 -0.0558,8.42578 h 1.75128 1.75127 v -8.42571 -8.42572 h 1.7468 1.74679 v 8.42572 8.42571 h 1.64404 1.64404 v -8.42571 -8.42572 h 1.7468 1.74679 v 8.42572 8.42571 h 1.64404 1.64404 v -8.42571 -8.42572 h 1.7468 1.74679 l 0.002,8.37434 0.002,8.37433 -2.31416,3.43541 -2.31417,3.43542 -24.55786,0.007 c -24.32251,0.006 -24.56599,0.002 -25.40597,-0.41318 z m 90.550744,-19.61696 -7.08805,-7.09028 19.52148,-19.52228 19.521475,-19.52229 2.362937,2.36294 2.362938,2.36293 -6.882184,6.88448 -6.882176,6.88448 2.413727,2.41373 2.413734,2.41373 -10.204609,10.20613 -10.204602,10.20613 1.78966,3.0346 1.78966,3.0346 -1.70181,1.71069 c -0.936,0.94089 -1.79683,1.71069 -1.91297,1.71069 -0.11614,0 -3.40078,-3.19062 -7.29921,-7.09028 z m 52.355106,-1.68827 -1.179337,-1.19568 6.0316291,-6.02903 6.031622,-6.02903 1.004615,1.06963 c 0.55253,0.58829 1.035575,1.15332 1.073432,1.25562 0.03783,0.1023 -2.597753,2.87209 -5.8569,6.15508 l -5.9257171,5.96909 z m -4.890088,-5.10507 -1.123258,-1.14231 5.959659,-5.83499 c 3.2778041,-3.20925 6.0358861,-5.83944 6.1290601,-5.84487 0.09317,-0.005 0.648035,0.44926 1.233031,1.01041 l 1.063622,1.02028 -5.9583231,5.96689 c -3.277073,3.28179 -6.008312,5.9669 -6.069424,5.9669 -0.06113,0 -0.616562,-0.51404 -1.234367,-1.14231 z m -4.872766,-4.66159 -1.074737,-1.08825 6.012631,-6.01005 6.012646,-6.01004 1.106419,1.12033 1.1064111,1.12033 -5.8016371,5.92111 c -3.190905,3.2566 -5.91085,5.94669 -6.044321,5.97796 -0.13347,0.0313 -0.726311,-0.43285 -1.317412,-1.03139 z m -4.78597,-4.79537 -1.123258,-1.14605 6.062395,-5.93058 6.062411,-5.93058 1.1285,1.11743 1.128494,1.11742 -5.956545,5.9592 c -3.276095,3.27756 -6.006534,5.9592 -6.067638,5.9592 -0.06113,0 -0.616569,-0.51572 -1.234359,-1.14604 z m -4.772757,-4.76349 -1.175686,-1.18809 4.467641,-4.41626 c 2.457207,-2.42895 5.184998,-5.10739 6.061766,-5.95211 l 1.594124,-1.53585 1.128362,1.12835 1.128353,1.12836 -6.014433,6.01184 -6.014441,6.01184 z m -4.882235,-4.8828 -1.119506,-1.13359 6.00637,-6.00638 6.006379,-6.00638 1.180773,1.18078 1.180774,1.18076 -5.956545,5.9592 c -3.276094,3.27756 -6.006533,5.95919 -6.067637,5.95919 -0.06113,0 -0.614885,-0.51011 -1.230608,-1.13358 z"
       style="fill:#000000;stroke-width:0.205505" />
    <path
       inkscape:connector-curvature="0"
       transform="scale(0.26458333)"
       d="M 287.86328,-854.28516 77.142578,-5.7148438 H 1274.2852 V -854.28516 Z"
       style="fill:#a7a7a7;fill-opacity:1;stroke:none;stroke-width:11.3237"
       id="rect1099" />
    <g
       transform="matrix(2.2489584,0,0,2.2489584,-1.8142859,-162.07619)"
       id="g965">
      <path
         inkscape:connector-curvature="0"
         d="M 0,0 H 48 V 48 H 0 Z"
         fill="none"
         id="path951" />
      <path
         inkscape:connector-curvature="0"
         d="m 30,14 v 8 h 2 v 4 H 26 V 10 h 4 l -6,-8 -6,8 h 4 v 16 h -6 v -4.14 c 1.41,-0.73 2.4,-2.16 2.4,-3.86 0,-2.43 -1.97,-4.4 -4.4,-4.4 -2.43,0 -4.4,1.97 -4.4,4.4 0,1.7 0.99,3.13 2.4,3.86 V 26 c 0,2.21 1.79,4 4,4 h 6 v 6.1 c -1.42,0.73 -2.4,2.19 -2.4,3.9 0,2.43 1.97,4.4 4.4,4.4 2.43,0 4.4,-1.97 4.4,-4.4 0,-1.71 -0.98,-3.17 -2.4,-3.9 V 30 h 6 c 2.21,0 4,-1.79 4,-4 v -4 h 2 v -8 z"
         id="path953" />
    </g>
    <g
       transform="matrix(0.0888312,0,0,0.0888312,103.2775,-206.56812)"
       id="g1060">
	<path
   inkscape:connector-curvature="0"
   d="m 1769.824,1068.2899 10.8564,0.231 5e-4,-371.9703 c 0,-70.353 -34.02,-132.0911 -74.2388,-189.8147 C 1606.8259,363.7618 1450.6814,318.0739 1302.0407,365.9498 1136.1996,419.3659 1024.779,575.0736 1024.779,749.305 v 739.1737 c 0,52.952 -17.5444,104.6348 -50.7988,145.8423 -104.6948,129.7328 -323.4988,120.9204 -388.0974,-62.3888 -8.4822,-24.0695 -12.5811,-49.4658 -12.5811,-74.9862 v -428.2001 c 0,-17.5345 10.499,-33.3969 26.678,-40.1577 C 821.4575,936.036 928.3943,757.1961 906.2851,481.1422 908.4816,371.7355 849.2824,319.6975 739.7934,314.6506 h -2.9998 V 130.1597 c 0,-40.5909 -32.9055,-73.4963 -73.4963,-73.4963 h -2e-4 c -40.5908,0 -73.4961,32.9054 -73.4961,73.4963 V 314.6506 H 379.8115 V 130.1597 c 0,-40.5909 -32.9055,-73.4963 -73.4963,-73.4963 -40.5911,0 -73.4963,32.9054 -73.4963,73.4963 V 314.6506 H 187.821 C 89.481,338.2234 57.8657,406.048 62.8213,508.1407 c 1.0669,21.9791 0,88.0204 0,88.0204 0,100.7253 34.5339,198.6736 98.8838,276.1638 61.6465,74.2346 140.9153,129.3895 238.6257,164.5994 17.3459,6.2506 28.978,22.6171 28.978,41.0547 0,0 0,324.5009 0,432.6677 0,9.0518 2.1567,17.8953 3.0249,26.9053 42.2168,438.1453 679.2168,442.1453 730.4678,4.5112 1.356,-11.5786 4.4707,-22.8866 4.4707,-34.5443 V 739.5663 c 0,-32.3102 6.3452,-64.3529 19.063,-94.0548 95.6421,-223.3679 393.6016,-210.8119 443.6235,25.1033 3.6021,16.9871 5.29,34.3267 5.29,51.6912 v 343.1216 h 5e-4 c -214.4731,28.3756 -379.9814,211.9375 -379.9814,434.1636 0,241.8885 196.0894,437.978 437.978,437.978 241.8886,0 437.978,-196.0895 437.978,-437.978 10e-5,-215.765 -156.0229,-395.0842 -361.3998,-431.3013 z m -76.5782,765.7843 c -184.73,0 -334.4834,-149.7532 -334.4834,-334.4832 0,-184.73 149.7534,-334.4833 334.4834,-334.4833 184.73,0 334.4834,149.7532 334.4834,334.4833 0,184.7301 -149.7534,334.4832 -334.4834,334.4832 z"
   id="path1056" />

	<path
   inkscape:connector-curvature="0"
   d="m 1638.0956,1259.1875 h 123.4559 c 19.5858,0 33.563,18.981 27.7498,37.6842 l -49.6206,159.6492 83.7202,0.8088 c 21.9503,0.2122 33.9589,25.671 20.1619,42.7445 l -213.0774,263.6775 c -11.389,14.0935 -33.7806,1.6013 -27.7699,-15.4929 l 62.9652,-179.0713 -65.8334,-1.4008 c -15.17,-0.3228 -26.8334,-13.5216 -25.2791,-28.6152 5.8195,-56.5121 18.9181,-183.9685 24.9856,-245.0804 1.967,-19.8113 18.6331,-34.9036 38.5418,-34.9036 z"
   id="path1058" />

</g>
    <rect
       y="-226.02977"
       x="-237.36905"
       height="224.51785"
       width="574.52386"
       id="rect1095"
       style="fill:#e3e3e3;fill-opacity:0.290323;stroke:none;stroke-width:2.99606" />
  </g>
</svg>
